<?xml version="1.0" encoding="iso-8859-1"?>
<!-- Generator: Adobe Illustrator 19.0.0, SVG Export Plug-In . SVG Version: 6.00 Build 0)  -->
<svg version="1.1" id="Capa_1" xmlns="http://www.w3.org/2000/svg" x="0px" y="0px"
     viewBox="0 0 489.7 489.7" style="enable-background:new 0 0 489.7 489.7;" xml:space="preserve">
<g>
	<g>
		<g>
			<path d="M458.043,62.6C458.043,62.6,458.443,62.6,458.043,62.6l0.4-9.3h5.1v-6.6h-18.7v6.6h5.1v9.3c0,0,0,0,0.4,0
				c-17.9,3.5-31.9,30.3-31.9,63c0,28.8,10.9,53.2,26,60.6v111.1c0,15.2-12,27.6-27.2,27.6h-115c-15.2,0-27.2-12.4-27.2-27.6v-28.8
				h79.7c15.5,0,28-12.4,28-28V28c0-15.5-12.4-28-28-28h-199.8c-15.5,0-28,12.4-28,28v212.2c0,15.5,12.4,28,28,28h79.7V297
				c0,15.2-12,27.6-27.2,27.6h-151.2c-30.7,0.4-56,25.6-56,56.7s25.3,56.3,56,56.3h233.9c5.4,29.5,31.1,52.1,62.2,52.1
				c35,0,63.3-28.4,63.3-63.7s-28.4-63.7-63.3-63.7c-32.3,0-58.7,24.5-62.6,56h-233.5c-20.2,0-36.5-16.7-36.5-36.9
				s16.3-36.9,36.5-36.9h150.8c25.6,0,46.6-21,46.6-47v-28.8h1.6v28.8c0,26,21,47,46.6,47h115c25.6,0,46.6-21,46.6-47V186.1
				c15.2-7.4,26-31.9,26-61C489.943,92.9,475.943,66.1,458.043,62.6z M352.343,379.2c25.6,0,46.2,21,46.2,46.6s-20.6,46.6-46.2,46.6
				s-46.2-21-46.2-46.6C306.143,400.2,326.743,379.2,352.343,379.2z"/>
            <path d="M346.543,436v6.2c0,3.1,2.7,5.8,5.8,5.8s5.8-2.7,5.8-5.8V436c3.5-1.9,5.8-5.8,5.8-10.1c0-4.3-2.3-8.2-5.8-10.1v-23
				c0-3.1-2.7-5.8-5.8-5.8s-5.8,2.7-5.8,5.8v23c-3.5,1.9-5.8,5.8-5.8,10.1C340.743,430.2,343.043,434,346.543,436z"/>
		</g>
	</g>
</g>
    <g>
</g>
    <g>
</g>
    <g>
</g>
    <g>
</g>
    <g>
</g>
    <g>
</g>
    <g>
</g>
    <g>
</g>
    <g>
</g>
    <g>
</g>
    <g>
</g>
    <g>
</g>
    <g>
</g>
    <g>
</g>
    <g>
</g>
</svg>
