<svg viewBox="0 -28 511.9995 511" xmlns="http://www.w3.org/2000/svg">
    <path d="m224.476562 322.082031-57.203124-142.984375-20.464844 61.40625h-116.375c31.1875 48.429688 85.28125 94.675782 153.566406 152.859375 19.527344 16.640625 40.300781 34.335938 62.128906 53.4375l9.871094 8.644531 9.875-8.644531c21.824219-19.101562 42.597656-36.796875 62.125-53.4375 68.285156-58.183593 122.378906-104.433593 153.566406-152.859375h-216.292968zm0 0"/>
    <path d="m377.058594.5c-61.4375.21875-100.550782 42.101562-121.058594 80.523438-20.40625-38.1875-59.355469-80.523438-120.03125-80.523438-.351562 0-.6875 0-1.023438 0-71.386718.570312-131.128906 61.464844-134.761718 138.632812-1.210938 25.671876 3.566406 49.011719 13.160156 71.371094h111.84375l39.535156-118.597656 62.800782 157.003906 19.203124-38.40625h251.925782c9.597656-22.359375 14.375-45.699218 13.160156-71.371094-3.628906-77.167968-63.371094-138.0625-134.753906-138.632812zm0 0"/>
</svg>
